inDegrees=no
num_controls=7
num_derivatives=13
num_iterations=213
num_multipliers=7
num_parameters=0
num_slacks=7
num_states=26
objective=6.292900
objective_accelerations=0.708507
objective_balance=0.073864
objective_effort=0.551524
objective_height=4.889030
objective_ligament=0.069976
solver_duration=2262.480730
status=Solve_Succeeded
success=true
DataType=double
version=3
OpenSimVersion=4.4-2022-07-23-0e9fedc
endheader
time	/jointset/ground_pelvis/pelvis_tilt/value	/jointset/ground_pelvis/pelvis_tx/value	/jointset/ground_pelvis/pelvis_ty/value	/jointset/hip_l/hip_flexion_l/value	/jointset/hip_l/hip_adduction_l/value	/jointset/hip_l/hip_rotation_l/value	/jointset/back/lumbar_extension/value	/jointset/patellofemoral_l/patellar_flexion_l/value	/jointset/knee_l/knee_flexion_l/value	/jointset/knee_l/knee_adduction_l/value	/jointset/knee_l/knee_rotation_l/value	/jointset/ankle_l/ankle_angle_l/value	/jointset/subtalar_l/subtalar_angle_l/value	/jointset/ground_pelvis/pelvis_tilt/speed	/jointset/ground_pelvis/pelvis_tx/speed	/jointset/ground_pelvis/pelvis_ty/speed	/jointset/hip_l/hip_flexion_l/speed	/jointset/hip_l/hip_adduction_l/speed	/jointset/hip_l/hip_rotation_l/speed	/jointset/back/lumbar_extension/speed	/jointset/patellofemoral_l/patellar_flexion_l/speed	/jointset/knee_l/knee_flexion_l/speed	/jointset/knee_l/knee_adduction_l/speed	/jointset/knee_l/knee_rotation_l/speed	/jointset/ankle_l/ankle_angle_l/speed	/jointset/subtalar_l/subtalar_angle_l/speed	/forceset/tau_hip_flexion_l	/forceset/tau_hip_adduction_l	/forceset/tau_hip_rotation_l	/forceset/tau_knee_flexion_l	/forceset/tau_ankle_angle_l	/forceset/tau_subtalar_angle_l	/forceset/tau_lumbar_extension	lambda_cid13_p0	lambda_cid13_p1	lambda_cid13_p2	lambda_cid13_p3	lambda_cid13_p4	lambda_cid13_p5	lambda_cid14_p0	/jointset/ground_pelvis/pelvis_tilt/accel	/jointset/ground_pelvis/pelvis_tx/accel	/jointset/ground_pelvis/pelvis_ty/accel	/jointset/hip_l/hip_flexion_l/accel	/jointset/hip_l/hip_adduction_l/accel	/jointset/hip_l/hip_rotation_l/accel	/jointset/back/lumbar_extension/accel	/jointset/patellofemoral_l/patellar_flexion_l/accel	/jointset/knee_l/knee_flexion_l/accel	/jointset/knee_l/knee_adduction_l/accel	/jointset/knee_l/knee_rotation_l/accel	/jointset/ankle_l/ankle_angle_l/accel	/jointset/subtalar_l/subtalar_angle_l/accel	gamma_cid13_p0	gamma_cid13_p1	gamma_cid13_p2	gamma_cid13_p3	gamma_cid13_p4	gamma_cid13_p5	gamma_cid14_p0
1.5	-0.01296845676692588	-0.008886231303803484	0.8336654013779237	0.7584558049008164	-0.3193461224541095	-0.1167343818799532	-0.8054425743194258	0.8753734821645057	0.8753734821645066	-0.07291019036774279	-0.1745328249931339	0.1972187404846124	0.04471125689357709	0.3743072993611901	0.2135854803509352	0.5116625860704193	-2.216549480552783	0.07063105177515257	-0.6515545907081957	0.8370751475929248	-2.251970444999349	-2.251970444999357	-0.2249076059617791	4.353179323527722e-06	-0.5520618925085068	-0.1256724083436856	-0.2133949409472054	0.0243216727764457	-0.008415042687600101	-0.2319134106014191	0.03908048416789234	0.04612512033721905	0.2883866981530059	-28.45114566223659	-17.43679764158276	5.051263478620689	-7.846679012554249	-663.302560999661	-75.95289495063234	-11.56587623412404	0.07702945007208967	0.7276581461685689	-0.7344977874116759	-0.8175176980613507	0.4632231332003287	-0.5761884418485713	2.13614383146618	-1.221546745580048	-1.221546745580049	-0.1919988721818364	0.0006692088426733991	-0.5051427638678559	0.4359067341033654	5.774770450805216e-07	3.69766334981204e-07	-3.366089526614061e-06	-2.759731574561795e-07	6.717327802161864e-07	5.761883367647562e-07	4.47457319524523e-07
1.51	-0.009221665583082633	-0.006714154916970794	0.8387442767104479	0.7362511760416928	-0.3186180163287166	-0.1232757405929841	-0.7969665997221607	0.8527952358764621	0.8527952358764616	-0.07517328605288123	-0.174532887178261	0.1916733418152132	0.04347467978595793	0.3749939666089607	0.2208089461688137	0.5040027272135391	-2.224088029594221	0.07499346781637206	-0.6566511263503214	0.8580061835200565	-2.263359208251118	-2.263359208251126	-0.2277072187823645	-7.016791868883862e-06	-0.5569083513469834	-0.121607924565891	-0.2053080007983662	0.02344684569986783	-0.008213124819912768	-0.227794699566932	0.04082763452993596	0.04553336610954832	0.2805810230827134	-27.60798747017357	-17.39390783156337	5.120357935325085	-7.923731694611449	-657.8144355092185	-75.86751975271149	-12.45745576937438	0.05599629123733862	0.7165141916830575	-0.7980463338819336	-0.6787107219428132	0.4236596493292482	-0.4659945872371254	2.054545222328052	-1.049694341269402	-1.049694341269679	-0.3232742966843254	-0.001210719256146647	-0.4579434309881205	0.3972677660943857	5.971810290275302e-07	5.623138622525988e-07	-3.349629007371737e-06	-2.554678180990422e-07	7.121165989583847e-07	7.290722785451181e-07	4.619395806801229e-07
1.52	-0.005469705540940148	-0.004470479193542209	0.8437432901745923	0.7139798242492033	-0.3178461042809622	-0.1298659863548041	-0.7882847224158258	0.8301126713106415	0.8301126713106405	-0.07746424422816262	-0.1745328971868917	0.1860827693599993	0.0422798572294121	0.3753410710210428	0.227905347670114	0.4956902123944298	-2.229894067225973	0.07939223624745052	-0.661332000466149	0.8782556894068442	-2.272834100554654	-2.272834100554665	-0.2304801039904467	1.478847070126164e-05	-0.561096649671482	-0.117321498129021	-0.1972210606495253	0.02257201862329235	-0.008011206952222268	-0.2236759885324444	0.04257478489198031	0.04494161188188075	0.2727753480124216	-26.76270877925182	-17.35222376821465	5.190601344274316	-8.056304261981728	-652.3317978882943	-75.86784752973556	-13.33508342398242	0.009116882934380687	0.7022452828528912	-0.8650289798575	-0.4710154161241853	0.4704936111721311	-0.4930561365889188	1.999837823397401	-0.8387725559336715	-0.8387725559336686	-0.1866533496811838	0.007304255595217866	-0.3735106610722469	0.4802952659184515	6.079249254395967e-07	7.755109707526102e-07	-3.281031749228199e-06	-2.271959041184206e-07	7.449489434988799e-07	8.746115540696114e-07	4.723048319090516e-07
1.53	-0.001715939430328797	-0.002156560904161254	0.8486560139059325	0.6916589950693469	-0.3170301133920246	-0.1365015667336009	-0.7794040061023542	0.8073448963034699	0.8073448963034702	-0.07978247710454371	-0.1745329035034148	0.1804535760764236	0.04112890316064451	0.3753532830767202	0.2348480091134745	0.4867530695218122	-2.233972846409703	0.0838052427507885	-0.6657106874414987	0.8977543518953566	-2.28038992664466	-2.280389926644668	-0.2331640711657969	-5.177062338833855e-06	-0.5646296307655824	-0.1128393699343861	-0.1890861591127152	0.02154762699916474	-0.007746346694308435	-0.2197851160596579	0.0443089377412083	0.04413747774519258	0.2649047382630518	-25.95275685194115	-17.19769557372959	5.226377407895019	-8.044527641798595	-647.1201858158303	-75.73018465004053	-14.19660605606692	-0.01150490661613976	0.6856971874331026	-0.9231199858590278	-0.3314027154258534	0.4269253178483527	-0.3987643395292429	1.904897252758007	-0.6644378008787593	-0.664437800878392	-0.3088239157306184	-0.00559860902801311	-0.3262865840374056	0.4368435815638412	6.091487288457873e-07	1.010648259308026e-06	-3.157039206002121e-06	-1.906720046003472e-07	7.697578467000656e-07	1.012347121697245e-06	4.782957600908922e-07
1.54	0.002036193146139195	0.0002258681221243983	0.8534763535995674	0.6693063593884679	-0.3161699482084669	-0.1431786318544551	-0.7703322998057615	0.7845114730023297	0.7845114730023307	-0.08212746075553295	-0.1745328998055608	0.1747924340318152	0.04002370477088883	0.3750143641923752	0.2416074950510533	0.4772134048533894	-2.23625536743057	0.08822709517147467	-0.6696289488776983	0.916453686031063	-2.285963759348454	-2.285963759348459	-0.2358302589118943	1.679135364489232e-05	-0.5674864018780218	-0.1081703623266382	-0.1809512575759031	0.02052323537503865	-0.007481486436403111	-0.2158942435868704	0.04604309059043681	0.04333334360850656	0.2570341285136831	-25.13922485654679	-17.04513351931829	5.264000008810783	-8.092363546913798	-641.8970891620837	-75.67595952092967	-15.04068491209849	-0.06110930507008074	0.6656101816965432	-0.9855333390185532	-0.1117637835514335	0.4722627946417499	-0.4009710287589204	1.839972152836238	-0.4423738786912051	-0.4423738786912051	-0.183097463830635	0.01569104539993268	-0.2382686647400453	0.5176711485410218	6.106279645303018e-07	1.250044563427809e-06	-3.038290551728209e-06	-1.56008604139792e-07	7.998668843928528e-07	1.145065349644974e-06	4.851856653555074e-07
1.55	0.005783229835830721	0.002674895964191763	0.8581984064367463	0.6469397388323245	-0.3152656042003277	-0.1498932186997875	-0.7610778703269319	0.7616321347701188	0.7616321347701183	-0.08449870239435692	-0.1745328810483154	0.1691060577947772	0.03896603310871635	0.3743308143191199	0.2481590134491755	0.4671053205289725	-2.236758346492986	0.09263692330579686	-0.6732113205389012	0.9342809957304687	-2.289561996829317	-2.289561996829322	-0.2384132941158023	-3.400862812442903e-06	-0.5696733638790882	-0.1033385745115407	-0.1727547855891535	0.01925548168944999	-0.007176623798849581	-0.2123786561255651	0.04789703971416939	0.04235493033258517	0.2491256907432731	-24.32325332338704	-16.80514451450775	5.273786246538251	-8.032519400224027	-637.0574801575709	-75.54730904363683	-15.86672337961423	-0.08125609337968631	0.6440425974241504	-1.03705104667398	0.02705614223841564	0.4248591340940746	-0.3247868721463362	1.731428277835872	-0.2673646460409972	-0.2673646460409139	-0.2950362868043736	-0.009965035857025848	-0.1915208601187808	0.4698167423167198	6.124015026224504e-07	1.494347994176101e-06	-2.925583769507878e-06	-1.234888221585514e-07	8.360825987824849e-07	1.272002729700639e-06	4.931113485633197e-07
1.56	0.009521575373804386	0.005188262975951168	0.8628166574171768	0.6245774127075219	-0.314317258648592	-0.1566412125892012	-0.7516497041712396	0.7387270509704481	0.7387270509704456	-0.08689560033284688	-0.1745328823494274	0.1634012897592628	0.03795745615355937	0.3732761338488078	0.2544753289894615	0.456453033503727	-2.235396481162395	0.09702740389078432	-0.6763103576939183	0.9512010214036	-2.291112872840464	-2.291112872840469	-0.2409615188450501	1.277969319215647e-05	-0.571164761573308	-0.09835142092353863	-0.1645583136024035	0.0179877280038604	-0.006871761161297801	-0.2088630686642597	0.04975098883790165	0.04137651705666255	0.2412172529728637	-23.50116433065784	-16.56785790030463	5.285869620842284	-8.039879574934917	-632.1735496572576	-75.49765252789361	-16.67498372336335	-0.1353354244814128	0.6185696101293048	-1.094373879184305	0.261205095049951	0.4683932847748167	-0.3043041275217486	1.65851534758134	-0.0329015847480798	-0.03290158474807969	-0.1761353688986038	0.02296559989235565	-0.09915580337069661	0.5487443031219617	6.100582157786862e-07	1.733232750622506e-06	-2.802988916168126e-06	-9.053237060869598e-08	8.695668720680709e-07	1.386188807180223e-06	4.993599766533738e-07
